<svg xmlns="http://www.w3.org/2000/svg" xmlns:xlink="http://www.w3.org/1999/xlink" width="280" height="160" viewBox="0 0 280 160"><defs><clipPath id="b"><rect width="280" height="160"/></clipPath></defs><g id="a" clip-path="url(#b)"><rect width="280" height="160" fill="#00a7bc"/><g transform="translate(-13.335 -1.5)"><g transform="translate(33.35 61.717)"><g transform="translate(24.985 0.283)"><g transform="translate(0 14.851)"><path d="M1.559,193.007l1.11,4.259c.242.935.467,1.8.623,2.667h.052c.191-.849.467-1.749.743-2.649l1.369-4.275H6.734l1.3,4.19c.311,1,.554,1.887.743,2.736h.052a24.928,24.928,0,0,1,.643-2.718l1.193-4.206h1.507l-2.7,8.379H8.085l-1.282-4a27.638,27.638,0,0,1-.743-2.751H6.024a24.633,24.633,0,0,1-.761,2.769L3.912,201.39H2.53L0,193.007Z" transform="translate(0 -193.007)" fill="#fff"/><path d="M151.573,193.007l1.11,4.259c.242.935.467,1.8.623,2.667h.052c.19-.849.467-1.749.743-2.649l1.369-4.275h1.278l1.3,4.19c.311,1,.554,1.887.743,2.736h.052a24.925,24.925,0,0,1,.643-2.718l1.193-4.206h1.507l-2.7,8.379H158.1l-1.282-4a27.636,27.636,0,0,1-.743-2.751h-.035a24.638,24.638,0,0,1-.761,2.769l-1.351,3.983h-1.383l-2.53-8.379h1.557Z" transform="translate(-137.073 -193.007)" fill="#fff"/><path d="M301.607,193.007l1.106,4.259c.242.935.467,1.8.623,2.667h.052c.191-.849.471-1.749.747-2.649l1.365-4.275h1.282l1.3,4.19c.311,1,.554,1.887.743,2.736h.052a25.188,25.188,0,0,1,.639-2.718l1.2-4.206h1.5l-2.7,8.379h-1.383l-1.282-4a27.628,27.628,0,0,1-.743-2.751h-.035a24.916,24.916,0,0,1-.763,2.769l-1.349,3.983h-1.386l-2.526-8.379h1.558Z" transform="translate(-274.161 -193.007)" fill="#fff"/></g><g transform="translate(20.134)"><path d="M266.668,142.939a17.405,17.405,0,0,1-14.042-7.161l1.545-1.124a15.43,15.43,0,1,0-1.128-16.313l-1.683-.9a17.343,17.343,0,1,1,15.308,25.5Z" transform="translate(-251.36 -108.255)" fill="#fff"/><rect width="11.514" height="1.907" transform="translate(33.327 39.313) rotate(-134.935)" fill="#fff"/></g></g></g><path d="M5.936,0a.793.793,0,0,1-.56-.182A1.465,1.465,0,0,1,5.04-.7L1.064-13.692a.749.749,0,0,1-.056-.28.548.548,0,0,1,.182-.42A.585.585,0,0,1,1.6-14.56H2.828a.644.644,0,0,1,.476.168.975.975,0,0,1,.224.308L6.636-3.528,9.968-13.972a.985.985,0,0,1,.238-.392.71.71,0,0,1,.546-.2H11.7a.758.758,0,0,1,.56.2.711.711,0,0,1,.224.392L15.82-3.528l3.108-10.556a.648.648,0,0,1,.2-.308.644.644,0,0,1,.476-.168h1.26a.537.537,0,0,1,.392.168.57.57,0,0,1,.168.42.749.749,0,0,1-.056.28L17.416-.7a1.216,1.216,0,0,1-.308.518A.883.883,0,0,1,16.492,0H15.4a.962.962,0,0,1-.6-.182A.9.9,0,0,1,14.476-.7L11.228-10.724,7.98-.7a1.091,1.091,0,0,1-.336.518A.95.95,0,0,1,7.028,0ZM29.96.28A6.106,6.106,0,0,1,25.34-1.5a7.327,7.327,0,0,1-1.876-4.858q-.028-.364-.028-.938t.028-.938a8.194,8.194,0,0,1,.924-3.486,5.771,5.771,0,0,1,2.226-2.31,6.548,6.548,0,0,1,3.318-.812,6.645,6.645,0,0,1,3.57.9A5.713,5.713,0,0,1,35.7-11.4a9.207,9.207,0,0,1,.756,3.864v.476a.615.615,0,0,1-.182.476.655.655,0,0,1-.462.168H26.124v.252a5.859,5.859,0,0,0,.5,2.142,3.943,3.943,0,0,0,1.3,1.61,3.332,3.332,0,0,0,2,.616,4.032,4.032,0,0,0,1.68-.308A4.305,4.305,0,0,0,32.7-2.786a3.274,3.274,0,0,0,.56-.6,1.456,1.456,0,0,1,.392-.406,1.062,1.062,0,0,1,.448-.07h1.372a.65.65,0,0,1,.434.154.471.471,0,0,1,.154.434,2.169,2.169,0,0,1-.448,1.022,5.507,5.507,0,0,1-1.19,1.19,6.5,6.5,0,0,1-1.9.966A8.08,8.08,0,0,1,29.96.28ZM26.124-8.344H33.8v-.084a5.194,5.194,0,0,0-.462-2.24A3.725,3.725,0,0,0,32-12.222a3.67,3.67,0,0,0-2.072-.574,3.6,3.6,0,0,0-2.058.574,3.664,3.664,0,0,0-1.3,1.554,5.333,5.333,0,0,0-.448,2.24ZM47.012.28a5.865,5.865,0,0,1-2.8-.6,5.376,5.376,0,0,1-1.792-1.5V-.644a.626.626,0,0,1-.182.462A.626.626,0,0,1,41.776,0H40.488a.626.626,0,0,1-.462-.182.626.626,0,0,1-.182-.462V-19.236a.626.626,0,0,1,.182-.462.626.626,0,0,1,.462-.182H41.86a.58.58,0,0,1,.448.182.655.655,0,0,1,.168.462v6.44a5.745,5.745,0,0,1,1.806-1.456,5.761,5.761,0,0,1,2.73-.588,5.992,5.992,0,0,1,2.674.546,5.008,5.008,0,0,1,1.82,1.5,6.876,6.876,0,0,1,1.078,2.156A10.167,10.167,0,0,1,53-8.12q.028.448.028.84T53-6.44a10.245,10.245,0,0,1-.42,2.548A6.7,6.7,0,0,1,51.506-1.75a5.068,5.068,0,0,1-1.82,1.484A5.992,5.992,0,0,1,47.012.28Zm-.588-2.268a3.683,3.683,0,0,0,2.282-.63A3.507,3.507,0,0,0,49.9-4.27a7.593,7.593,0,0,0,.42-2.2q.028-.812,0-1.624a7.593,7.593,0,0,0-.42-2.2,3.507,3.507,0,0,0-1.19-1.652,3.683,3.683,0,0,0-2.282-.63,3.681,3.681,0,0,0-2.184.616,3.855,3.855,0,0,0-1.3,1.568,4.964,4.964,0,0,0-.462,1.932q-.028.448-.028,1.078T42.476-6.3a6.225,6.225,0,0,0,.462,2.03A3.827,3.827,0,0,0,44.2-2.632,3.6,3.6,0,0,0,46.424-1.988ZM71.092.28a9.02,9.02,0,0,1-4.046-.84,5.808,5.808,0,0,1-2.6-2.562,9.472,9.472,0,0,1-.91-4.438V-18.928a.694.694,0,0,1,.168-.49.615.615,0,0,1,.476-.182H65.6a.662.662,0,0,1,.49.182.662.662,0,0,1,.182.49V-7.5a5.608,5.608,0,0,0,1.288,4.06,4.71,4.71,0,0,0,3.528,1.316,4.72,4.72,0,0,0,3.514-1.316,5.569,5.569,0,0,0,1.3-4.06V-18.928a.662.662,0,0,1,.182-.49.626.626,0,0,1,.462-.182h1.456a.626.626,0,0,1,.462.182.662.662,0,0,1,.182.49V-7.56a9.472,9.472,0,0,1-.91,4.438A5.824,5.824,0,0,1,75.152-.56,9,9,0,0,1,71.092.28ZM83.972,0A.615.615,0,0,1,83.5-.182a.655.655,0,0,1-.168-.462V-18.928a.694.694,0,0,1,.168-.49.615.615,0,0,1,.476-.182H90.8a7.782,7.782,0,0,1,5.012,1.484,5.3,5.3,0,0,1,1.848,4.4,5.481,5.481,0,0,1-1.078,3.514,5.592,5.592,0,0,1-2.926,1.89L97.972-.868a.7.7,0,0,1,.084.308.518.518,0,0,1-.182.392A.585.585,0,0,1,97.468,0H96.124a.89.89,0,0,1-.7-.252,4.614,4.614,0,0,1-.392-.5l-4.06-7.112h-4.9V-.644a.626.626,0,0,1-.182.462A.662.662,0,0,1,85.4,0Zm2.1-10.248h4.62a4.745,4.745,0,0,0,3.136-.882,3.247,3.247,0,0,0,1.036-2.618,3.278,3.278,0,0,0-1.022-2.6,4.684,4.684,0,0,0-3.15-.9h-4.62ZM102.312,0a.616.616,0,0,1-.476-.182.655.655,0,0,1-.168-.462V-18.956a.655.655,0,0,1,.168-.462.616.616,0,0,1,.476-.182H103.8a.626.626,0,0,1,.462.182.626.626,0,0,1,.182.462v16.52h9.3a.662.662,0,0,1,.49.182.662.662,0,0,1,.182.49v1.12a.626.626,0,0,1-.182.462.662.662,0,0,1-.49.182Z" transform="translate(134 91.88)" fill="#fff"/><line y2="53" transform="translate(123.5 55.5)" fill="none" stroke="#fff" stroke-width="1"/></g></g></svg>